RobotoExtremo-opszmax-wghtmax.ufo
<glyph name="exclam" format="2">
  <advance width="696"/>
  <unicode hex="0021"/>
  <outline>
    <contour>
      <point x="44" y="247" type="qcurve" smooth="yes"/>
      <point x="44" y="137"/>
      <point x="200" y="-22"/>
      <point x="348" y="-22" type="qcurve" smooth="yes"/>
      <point x="496" y="-22"/>
      <point x="652" y="137"/>
      <point x="652" y="247" type="qcurve" smooth="yes"/>
      <point x="652" y="357"/>
      <point x="493" y="516"/>
      <point x="344" y="516" type="qcurve" smooth="yes"/>
      <point x="200" y="516"/>
      <point x="44" y="357"/>
    </contour>
    <contour>
      <point x="99" y="542" type="line"/>
      <point x="596" y="542" type="line"/>
      <point x="606" y="1456" type="line"/>
      <point x="90" y="1456" type="line"/>
    </contour>
  </outline>
</glyph>
<glyph name="quotedbl" format="2">
  <advance width="1197"/>
  <unicode hex="0022"/>
  <outline>
    <contour>
      <point x="74" y="795" type="line"/>
      <point x="559" y="795" type="line"/>
      <point x="574" y="1232" type="line"/>
      <point x="574" y="1456" type="line"/>
      <point x="60" y="1456" type="line"/>
      <point x="60" y="1232" type="line"/>
    </contour>
    <contour>
      <point x="638" y="795" type="line"/>
      <point x="1122" y="795" type="line"/>
      <point x="1137" y="1232" type="line"/>
      <point x="1137" y="1456" type="line"/>
      <point x="624" y="1456" type="line"/>
      <point x="624" y="1232" type="line"/>
    </contour>
  </outline>
</glyph>
<glyph name="hyphen" format="2">
  <advance width="885"/>
  <unicode hex="002D"/>
  <outline>
    <contour>
      <point x="54" y="399" type="line"/>
      <point x="831" y="399" type="line"/>
      <point x="831" y="851" type="line"/>
      <point x="54" y="851" type="line"/>
    </contour>
  </outline>
</glyph>
<glyph name="slash" format="2">
  <advance width="932"/>
  <unicode hex="002F"/>
  <outline>
    <contour>
      <point x="-100" y="-125" type="line"/>
      <point x="396" y="-125" type="line"/>
      <point x="976" y="1456" type="line"/>
      <point x="479" y="1456" type="line"/>
    </contour>
  </outline>
</glyph>
<glyph name="zero" format="2">
  <advance width="1361"/>
  <unicode hex="0030"/>
  <outline>
    <contour>
      <point x="40" y="580" type="line" smooth="yes"/>
      <point x="40" y="281"/>
      <point x="380" y="-20"/>
      <point x="680" y="-20" type="qcurve" smooth="yes"/>
      <point x="949" y="-20"/>
      <point x="1321" y="278"/>
      <point x="1321" y="580" type="qcurve" smooth="yes"/>
      <point x="1321" y="876" type="line" smooth="yes"/>
      <point x="1321" y="1168"/>
      <point x="976" y="1476"/>
      <point x="680" y="1476" type="qcurve" smooth="yes"/>
      <point x="384.0" y="1476.0"/>
      <point x="40" y="1158.0"/>
      <point x="40" y="876" type="qcurve" smooth="yes"/>
    </contour>
    <contour>
      <point x="631" y="442" type="qcurve" smooth="yes"/>
      <point x="631" y="999" type="line" smooth="yes"/>
      <point x="631" y="1043"/>
      <point x="655" y="1088"/>
      <point x="680" y="1088" type="qcurve" smooth="yes"/>
      <point x="705" y="1088"/>
      <point x="729" y="1043"/>
      <point x="729" y="999" type="qcurve" smooth="yes"/>
      <point x="729" y="442" type="line" smooth="yes"/>
      <point x="729.0" y="402.0"/>
      <point x="705" y="359"/>
      <point x="680" y="359" type="qcurve" smooth="yes"/>
      <point x="655" y="359"/>
      <point x="631.0" y="402.0"/>
    </contour>
  </outline>
</glyph>
<glyph name="colon" format="2">
  <advance width="627"/>
  <unicode hex="003A"/>
  <outline>
    <contour>
      <point x="38" y="234" type="qcurve" smooth="yes"/>
      <point x="38" y="128"/>
      <point x="181" y="-19"/>
      <point x="313" y="-19" type="qcurve" smooth="yes"/>
      <point x="446" y="-19"/>
      <point x="589" y="125"/>
      <point x="589" y="234" type="qcurve" smooth="yes"/>
      <point x="589" y="340"/>
      <point x="446" y="484"/>
      <point x="313" y="484" type="qcurve" smooth="yes"/>
      <point x="181" y="484"/>
      <point x="38" y="340"/>
    </contour>
    <contour>
      <point x="38" y="818" type="qcurve" smooth="yes"/>
      <point x="38" y="712"/>
      <point x="181" y="565"/>
      <point x="313" y="565" type="qcurve" smooth="yes"/>
      <point x="446" y="565"/>
      <point x="589" y="709"/>
      <point x="589" y="818" type="qcurve" smooth="yes"/>
      <point x="589" y="924"/>
      <point x="446" y="1068"/>
      <point x="313" y="1068" type="qcurve" smooth="yes"/>
      <point x="181" y="1068"/>
      <point x="38" y="924"/>
    </contour>
  </outline>
</glyph>
<glyph name="B" format="2">
  <advance width="1373"/>
  <unicode hex="0042"/>
  <outline>
    <contour>
      <point x="40" y="0" type="line"/>
      <point x="864" y="0" type="line" smooth="yes"/>
      <point x="1105" y="0"/>
      <point x="1373" y="222"/>
      <point x="1373" y="414" type="qcurve" smooth="yes"/>
      <point x="1373" y="577"/>
      <point x="1215" y="737"/>
      <point x="1102" y="763" type="qcurve"/>
      <point x="1102" y="767" type="line"/>
      <point x="1196" y="803"/>
      <point x="1303" y="963"/>
      <point x="1303" y="1086" type="qcurve" smooth="yes"/>
      <point x="1303" y="1246"/>
      <point x="1103.0" y="1456.0"/>
      <point x="852" y="1456" type="qcurve" smooth="yes"/>
      <point x="40" y="1456" type="line"/>
    </contour>
    <contour>
      <point x="620" y="369" type="line"/>
      <point x="620" y="585" type="line"/>
      <point x="677" y="585" type="line" smooth="yes"/>
      <point x="719.0" y="585.0"/>
      <point x="764" y="524"/>
      <point x="764" y="478" type="qcurve" smooth="yes"/>
      <point x="764" y="431"/>
      <point x="719.0" y="369.0"/>
      <point x="677" y="369" type="qcurve" smooth="yes"/>
    </contour>
    <contour>
      <point x="620.0" y="852" type="line"/>
      <point x="620.0" y="1065.0" type="line"/>
      <point x="673" y="1065" type="line" smooth="yes"/>
      <point x="708" y="1065"/>
      <point x="741" y="1009"/>
      <point x="741" y="959" type="qcurve" smooth="yes"/>
      <point x="741" y="909"/>
      <point x="708.0" y="852.0"/>
      <point x="673" y="852" type="qcurve" smooth="yes"/>
    </contour>
  </outline>
</glyph>
<glyph name="C" format="2">
  <advance width="1354"/>
  <unicode hex="0043"/>
  <outline>
    <contour>
      <point x="25" y="689" type="line" smooth="yes"/>
      <point x="25" y="312"/>
      <point x="400" y="-19"/>
      <point x="713" y="-19" type="qcurve" smooth="yes"/>
      <point x="1001" y="-19"/>
      <point x="1337" y="228"/>
      <point x="1336" y="460" type="qcurve" smooth="yes"/>
      <point x="1336" y="642" type="line"/>
      <point x="779" y="642" type="line"/>
      <point x="779" y="480" type="line" smooth="yes"/>
      <point x="779" y="414"/>
      <point x="754" y="362"/>
      <point x="727" y="362" type="qcurve" smooth="yes"/>
      <point x="699" y="362"/>
      <point x="669" y="412"/>
      <point x="669" y="480" type="qcurve" smooth="yes"/>
      <point x="669" y="975" type="line" smooth="yes"/>
      <point x="669" y="1036"/>
      <point x="700" y="1082"/>
      <point x="727" y="1082" type="qcurve" smooth="yes"/>
      <point x="751" y="1082"/>
      <point x="779" y="1049"/>
      <point x="779" y="1024" type="qcurve" smooth="yes"/>
      <point x="779" y="804" type="line"/>
      <point x="1336" y="804" type="line"/>
      <point x="1336" y="958" type="line" smooth="yes"/>
      <point x="1336" y="1234"/>
      <point x="1001" y="1475"/>
      <point x="713" y="1475" type="qcurve" smooth="yes"/>
      <point x="404" y="1475"/>
      <point x="25" y="1151"/>
      <point x="25" y="767" type="qcurve" smooth="yes"/>
    </contour>
  </outline>
</glyph>
<glyph name="D" format="2">
  <advance width="1378"/>
  <unicode hex="0044"/>
  <outline>
    <contour>
      <point x="40" y="0" type="line"/>
      <point x="736" y="0.0" type="line" smooth="yes"/>
      <point x="1027" y="0.0"/>
      <point x="1354" y="370"/>
      <point x="1354.0" y="694.0" type="qcurve" smooth="yes"/>
      <point x="1354.0" y="772.0" type="line" smooth="yes"/>
      <point x="1354" y="1097"/>
      <point x="1033" y="1456.0"/>
      <point x="736" y="1456.0" type="qcurve" smooth="yes"/>
      <point x="40" y="1456" type="line"/>
    </contour>
    <contour>
      <point x="620" y="392" type="line"/>
      <point x="620" y="1044" type="line"/>
      <point x="662" y="1044" type="line" smooth="yes"/>
      <point x="709" y="1044"/>
      <point x="751" y="978"/>
      <point x="751" y="861" type="qcurve" smooth="yes"/>
      <point x="751" y="591" type="line" smooth="yes"/>
      <point x="751" y="478"/>
      <point x="706.0" y="392.0"/>
      <point x="662" y="392" type="qcurve" smooth="yes"/>
    </contour>
  </outline>
</glyph>
<glyph name="F" format="2">
  <advance width="1113"/>
  <unicode hex="0046"/>
  <outline>
    <contour>
      <point x="40" y="0" type="line"/>
      <point x="640" y="0" type="line"/>
      <point x="640" y="483" type="line"/>
      <point x="1038" y="483" type="line"/>
      <point x="1038" y="899" type="line"/>
      <point x="640" y="899" type="line"/>
      <point x="640" y="991" type="line"/>
      <point x="1103" y="991" type="line"/>
      <point x="1103" y="1456" type="line"/>
      <point x="40" y="1456" type="line"/>
    </contour>
  </outline>
</glyph>
<glyph name="G" format="2">
  <advance width="1361"/>
  <unicode hex="0047"/>
  <outline>
    <contour>
      <point x="24" y="689" type="line" smooth="yes"/>
      <point x="24" y="331"/>
      <point x="412" y="-20"/>
      <point x="715" y="-20" type="qcurve" smooth="yes"/>
      <point x="971" y="-20"/>
      <point x="1274" y="134"/>
      <point x="1337" y="214" type="qcurve"/>
      <point x="1337" y="858" type="line"/>
      <point x="706" y="856" type="line"/>
      <point x="706" y="480" type="line"/>
      <point x="775" y="480" type="line"/>
      <point x="775" y="396" type="line"/>
      <point x="764" y="384"/>
      <point x="739" y="373"/>
      <point x="722" y="373" type="qcurve" smooth="yes"/>
      <point x="687" y="373"/>
      <point x="649" y="435"/>
      <point x="649" y="493" type="qcurve" smooth="yes"/>
      <point x="649" y="951" type="line" smooth="yes"/>
      <point x="649" y="1025"/>
      <point x="680" y="1060"/>
      <point x="711" y="1060" type="qcurve" smooth="yes"/>
      <point x="742" y="1060"/>
      <point x="774" y="1018"/>
      <point x="774" y="953" type="qcurve" smooth="yes"/>
      <point x="774" y="926" type="line"/>
      <point x="1328" y="926" type="line"/>
      <point x="1328" y="993" type="line" smooth="yes"/>
      <point x="1328" y="1212"/>
      <point x="1024" y="1476"/>
      <point x="736" y="1476" type="qcurve" smooth="yes"/>
      <point x="413" y="1476"/>
      <point x="24" y="1125"/>
      <point x="24" y="767" type="qcurve" smooth="yes"/>
    </contour>
  </outline>
</glyph>
<glyph name="J" format="2">
  <advance width="1273"/>
  <unicode hex="004A"/>
  <outline>
    <contour>
      <point x="25" y="535" type="line" smooth="yes"/>
      <point x="25" y="239"/>
      <point x="333" y="-20"/>
      <point x="630.0" y="-20.0" type="qcurve" smooth="yes"/>
      <point x="940.0" y="-20.0"/>
      <point x="1233.0" y="278.0"/>
      <point x="1233.0" y="548" type="qcurve" smooth="yes"/>
      <point x="1233" y="1456.0" type="line"/>
      <point x="632" y="1456" type="line"/>
      <point x="632.0" y="449" type="line" smooth="yes"/>
      <point x="632.0" y="402.0"/>
      <point x="608.0" y="362"/>
      <point x="587.0" y="362" type="qcurve" smooth="yes"/>
      <point x="565.0" y="362"/>
      <point x="543.0" y="398"/>
      <point x="543.0" y="438" type="qcurve" smooth="yes"/>
      <point x="543.0" y="645" type="line"/>
      <point x="25.0" y="645.0" type="line"/>
    </contour>
  </outline>
</glyph>
<glyph name="P" format="2">
  <advance width="1409"/>
  <unicode hex="0050"/>
  <outline>
    <contour>
      <point x="40" y="0" type="line"/>
      <point x="640" y="0" type="line"/>
      <point x="640" y="309" type="line"/>
      <point x="883" y="309" type="line" smooth="yes"/>
      <point x="1144" y="309"/>
      <point x="1397" y="620"/>
      <point x="1397" y="879" type="qcurve" smooth="yes"/>
      <point x="1397" y="1138"/>
      <point x="1134" y="1456"/>
      <point x="896" y="1456" type="qcurve" smooth="yes"/>
      <point x="40" y="1456" type="line"/>
    </contour>
    <contour>
      <point x="640" y="690" type="line"/>
      <point x="640" y="1041" type="line"/>
      <point x="713" y="1041" type="line" smooth="yes"/>
      <point x="761" y="1041"/>
      <point x="799" y="941"/>
      <point x="799" y="864" type="qcurve" smooth="yes"/>
      <point x="799" y="791"/>
      <point x="761" y="690"/>
      <point x="713" y="690" type="qcurve" smooth="yes"/>
    </contour>
  </outline>
</glyph>
<glyph name="X" format="2">
  <advance width="1396"/>
  <unicode hex="0058"/>
  <outline>
    <contour>
      <point x="-40" y="0" type="line"/>
      <point x="493" y="0" type="line"/>
      <point x="875" y="710" type="line"/>
      <point x="1010" y="714" type="line"/>
      <point x="1412" y="1456" type="line"/>
      <point x="879" y="1456" type="line"/>
      <point x="523" y="794" type="line"/>
      <point x="388" y="790" type="line"/>
    </contour>
    <contour>
      <point x="-16" y="1456" type="line"/>
      <point x="395" y="691" type="line"/>
      <point x="417" y="687" type="line"/>
      <point x="765" y="0" type="line"/>
      <point x="1416" y="0" type="line"/>
      <point x="971" y="819" type="line"/>
      <point x="948" y="825" type="line"/>
      <point x="634" y="1456" type="line"/>
    </contour>
  </outline>
</glyph>
<glyph name="Z" format="2">
  <advance width="1332"/>
  <unicode hex="005A"/>
  <outline>
    <contour>
      <point x="12" y="0" type="line"/>
      <point x="1320" y="0" type="line"/>
      <point x="1320" y="446" type="line"/>
      <point x="776" y="446" type="line"/>
      <point x="1276" y="1122" type="line"/>
      <point x="1276" y="1456" type="line"/>
      <point x="35" y="1456" type="line"/>
      <point x="35" y="990" type="line"/>
      <point x="522" y="990" type="line"/>
      <point x="12" y="314" type="line"/>
    </contour>
  </outline>
</glyph>
<glyph name="grave" format="2">
  <advance width="986"/>
  <unicode hex="0060"/>
  <outline>
    <contour>
      <point x="271.0" y="1156.0" type="line"/>
      <point x="760.0" y="1156.0" type="line"/>
      <point x="548.0" y="1526.0" type="line"/>
      <point x="13.0" y="1526.0" type="line"/>
    </contour>
  </outline>
</glyph>
<glyph name="a" format="2">
  <advance width="1303"/>
  <unicode hex="0061"/>
  <outline>
    <contour>
      <point x="0" y="267" type="qcurve" smooth="yes"/>
      <point x="0" y="128"/>
      <point x="179" y="-13"/>
      <point x="342" y="-13" type="qcurve" smooth="yes"/>
      <point x="475" y="-13"/>
      <point x="654" y="63"/>
      <point x="690" y="108" type="qcurve"/>
      <point x="693" y="76"/>
      <point x="707" y="24"/>
      <point x="724" y="0" type="qcurve"/>
      <point x="1303" y="0" type="line"/>
      <point x="1303" y="12" type="line"/>
      <point x="1281" y="45"/>
      <point x="1260" y="132"/>
      <point x="1260" y="182" type="qcurve" smooth="yes"/>
      <point x="1260" y="569" type="line" smooth="yes"/>
      <point x="1260" y="761"/>
      <point x="989" y="942"/>
      <point x="689" y="942" type="qcurve" smooth="yes"/>
      <point x="404" y="942"/>
      <point x="78" y="766"/>
      <point x="78" y="605" type="qcurve" smooth="yes"/>
      <point x="78" y="592" type="line"/>
      <point x="595" y="589" type="line"/>
      <point x="595" y="607" type="line" smooth="yes"/>
      <point x="595" y="632"/>
      <point x="618" y="661"/>
      <point x="639" y="661" type="qcurve" smooth="yes"/>
      <point x="661" y="661"/>
      <point x="680" y="628"/>
      <point x="680" y="598" type="qcurve" smooth="yes"/>
      <point x="680" y="576" type="line"/>
      <point x="428" y="576" type="line" smooth="yes"/>
      <point x="232" y="576"/>
      <point x="0" y="406"/>
    </contour>
    <contour>
      <point x="570" y="313" type="qcurve" smooth="yes"/>
      <point x="570" y="343"/>
      <point x="602" y="377"/>
      <point x="635" y="377" type="qcurve" smooth="yes"/>
      <point x="680" y="377" type="line"/>
      <point x="680" y="334" type="line" smooth="yes"/>
      <point x="680" y="306"/>
      <point x="640" y="260"/>
      <point x="616" y="260" type="qcurve" smooth="yes"/>
      <point x="594" y="260"/>
      <point x="570" y="286"/>
    </contour>
  </outline>
</glyph>
<glyph name="b" format="2">
  <advance width="1291"/>
  <unicode hex="0062"/>
  <outline>
    <contour>
      <point x="18" y="0" type="line"/>
      <point x="590" y="0" type="line"/>
      <point x="590" y="85" type="line"/>
      <point x="591" y="85" type="line"/>
      <point x="634" y="31"/>
      <point x="769" y="-20"/>
      <point x="869" y="-20" type="qcurve" smooth="yes"/>
      <point x="1041" y="-20"/>
      <point x="1281" y="252"/>
      <point x="1281" y="452" type="qcurve" smooth="yes"/>
      <point x="1281" y="484" type="line" smooth="yes"/>
      <point x="1281" y="684"/>
      <point x="1051" y="944"/>
      <point x="879" y="944" type="qcurve" smooth="yes"/>
      <point x="779" y="944"/>
      <point x="642" y="869"/>
      <point x="595" y="805" type="qcurve"/>
      <point x="595" y="1458" type="line"/>
      <point x="18" y="1458" type="line"/>
    </contour>
    <contour>
      <point x="595" y="396" type="qcurve"/>
      <point x="595" y="518" type="line"/>
      <point x="602" y="538"/>
      <point x="630" y="569"/>
      <point x="651" y="569" type="qcurve" smooth="yes"/>
      <point x="681" y="569"/>
      <point x="710" y="512"/>
      <point x="710" y="465" type="qcurve" smooth="yes"/>
      <point x="710" y="456" type="line" smooth="yes"/>
      <point x="710" y="409"/>
      <point x="681" y="345"/>
      <point x="653" y="345" type="qcurve" smooth="yes"/>
      <point x="630" y="345"/>
      <point x="602" y="376"/>
    </contour>
  </outline>
</glyph>
<glyph name="d" format="2">
  <advance width="1292"/>
  <unicode hex="0064"/>
  <outline>
    <contour>
      <point x="10" y="442" type="line" smooth="yes"/>
      <point x="10" y="242"/>
      <point x="220" y="-20"/>
      <point x="406" y="-20" type="qcurve" smooth="yes"/>
      <point x="515" y="-20"/>
      <point x="672" y="70"/>
      <point x="715" y="133" type="qcurve"/>
      <point x="716" y="133" type="line"/>
      <point x="716" y="0" type="line"/>
      <point x="1274" y="0" type="line"/>
      <point x="1274" y="1458" type="line"/>
      <point x="712" y="1458" type="line"/>
      <point x="712" y="810" type="line"/>
      <point x="669" y="866"/>
      <point x="516" y="934"/>
      <point x="406" y="934" type="qcurve" smooth="yes"/>
      <point x="225" y="934"/>
      <point x="10" y="674"/>
      <point x="10" y="474" type="qcurve" smooth="yes"/>
    </contour>
    <contour>
      <point x="581" y="451" type="qcurve" smooth="yes"/>
      <point x="581" y="461" type="line" smooth="yes"/>
      <point x="581" y="508"/>
      <point x="610" y="570"/>
      <point x="641" y="570" type="qcurve" smooth="yes"/>
      <point x="662" y="570"/>
      <point x="691" y="538"/>
      <point x="697" y="518" type="qcurve"/>
      <point x="697" y="396" type="line"/>
      <point x="691" y="376"/>
      <point x="662" y="344"/>
      <point x="641" y="344" type="qcurve" smooth="yes"/>
      <point x="610" y="344"/>
      <point x="581" y="404"/>
    </contour>
  </outline>
</glyph>
<glyph name="f" format="2">
  <advance width="869"/>
  <unicode hex="0066"/>
  <outline>
    <contour>
      <point x="129" y="0" type="line"/>
      <point x="701" y="0" type="line"/>
      <point x="701" y="830" type="line"/>
      <point x="691" y="839" type="line"/>
      <point x="691" y="930" type="line" smooth="yes"/>
      <point x="691" y="1001"/>
      <point x="757" y="1064"/>
      <point x="820" y="1064" type="qcurve" smooth="yes"/>
      <point x="852" y="1064"/>
      <point x="887" y="1059"/>
      <point x="905" y="1057" type="qcurve"/>
      <point x="921" y="1458" type="line"/>
      <point x="869" y="1467"/>
      <point x="781" y="1478"/>
      <point x="724" y="1478" type="qcurve" smooth="yes"/>
      <point x="447" y="1478"/>
      <point x="129" y="1253"/>
      <point x="129" y="1035" type="qcurve" smooth="yes"/>
    </contour>
    <contour>
      <point x="4" y="520" type="line"/>
      <point x="859" y="520" type="line"/>
      <point x="859" y="914" type="line"/>
      <point x="226" y="914" type="line"/>
      <point x="208" y="914" type="line"/>
      <point x="4" y="914" type="line"/>
    </contour>
  </outline>
</glyph>
<glyph name="g" format="2">
  <advance width="1291"/>
  <unicode hex="0067"/>
  <outline>
    <contour>
      <point x="53.0" y="-376" type="line"/>
      <point x="151.0" y="-405"/>
      <point x="443.0" y="-456"/>
      <point x="620.0" y="-456" type="qcurve" smooth="yes"/>
      <point x="925.0" y="-456"/>
      <point x="1273" y="-134"/>
      <point x="1273.0" y="160" type="qcurve" smooth="yes"/>
      <point x="1273" y="914.0" type="line"/>
      <point x="697" y="914" type="line"/>
      <point x="697" y="792" type="line"/>
      <point x="693" y="792.0" type="line"/>
      <point x="651" y="854.0"/>
      <point x="488" y="934.0"/>
      <point x="391" y="934.0" type="qcurve" smooth="yes"/>
      <point x="208" y="934.0"/>
      <point x="10" y="674.0"/>
      <point x="10" y="474.0" type="qcurve" smooth="yes"/>
      <point x="10" y="442" type="line" smooth="yes"/>
      <point x="10" y="242"/>
      <point x="228" y="-12"/>
      <point x="400" y="-12" type="qcurve" smooth="yes"/>
      <point x="536" y="-12"/>
      <point x="661" y="66"/>
      <point x="706" y="128" type="qcurve"/>
      <point x="706" y="30" type="line" smooth="yes"/>
      <point x="706" y="-54"/>
      <point x="544" y="-97"/>
      <point x="471" y="-97" type="qcurve"/>
      <point x="386" y="-97"/>
      <point x="144" y="-28"/>
      <point x="100" y="1" type="qcurve"/>
    </contour>
    <contour>
      <point x="581" y="451" type="qcurve" smooth="yes"/>
      <point x="581" y="461" type="line" smooth="yes"/>
      <point x="581" y="508"/>
      <point x="610" y="570"/>
      <point x="641" y="570" type="qcurve" smooth="yes"/>
      <point x="662" y="570"/>
      <point x="691" y="538"/>
      <point x="697" y="518" type="qcurve"/>
      <point x="697" y="396" type="line"/>
      <point x="691" y="376"/>
      <point x="662" y="344"/>
      <point x="641" y="344" type="qcurve" smooth="yes"/>
      <point x="610" y="344"/>
      <point x="581" y="404"/>
    </contour>
  </outline>
</glyph>
<glyph name="i" format="2">
  <advance width="629"/>
  <unicode hex="0069"/>
  <outline>
    <contour>
      <point x="18" y="0" type="line"/>
      <point x="611" y="0" type="line"/>
      <point x="611" y="914" type="line"/>
      <point x="18" y="914" type="line"/>
    </contour>
    <contour>
      <point x="5" y="1216" type="qcurve" smooth="yes"/>
      <point x="5" y="1103"/>
      <point x="163" y="941"/>
      <point x="312" y="941" type="qcurve" smooth="yes"/>
      <point x="461" y="941"/>
      <point x="624" y="1103"/>
      <point x="624" y="1216" type="qcurve" smooth="yes"/>
      <point x="624" y="1333"/>
      <point x="466" y="1487"/>
      <point x="317" y="1487" type="qcurve" smooth="yes"/>
      <point x="167" y="1487"/>
      <point x="5" y="1330"/>
    </contour>
  </outline>
</glyph>
<glyph name="r" format="2">
  <advance width="964"/>
  <unicode hex="0072"/>
  <outline>
    <contour>
      <point x="18" y="0" type="line"/>
      <point x="615" y="0" type="line"/>
      <point x="615" y="403" type="line"/>
      <point x="653" y="465"/>
      <point x="783" y="536"/>
      <point x="842" y="536" type="qcurve" smooth="yes"/>
      <point x="881" y="536"/>
      <point x="944" y="527"/>
      <point x="964" y="516" type="qcurve"/>
      <point x="964" y="913" type="line"/>
      <point x="954" y="917"/>
      <point x="894" y="926"/>
      <point x="849" y="926" type="qcurve" smooth="yes"/>
      <point x="778" y="926"/>
      <point x="651" y="850"/>
      <point x="611" y="786" type="qcurve"/>
      <point x="610" y="786" type="line"/>
      <point x="610" y="914" type="line"/>
      <point x="18" y="914" type="line"/>
    </contour>
  </outline>
</glyph>
<glyph name="s" format="2">
  <advance width="1173"/>
  <unicode hex="0073"/>
  <outline>
    <contour>
      <point x="0" y="312" type="line"/>
      <point x="1" y="297" type="line" smooth="yes"/>
      <point x="11" y="159"/>
      <point x="296" y="-27"/>
      <point x="588" y="-27" type="qcurve" smooth="yes"/>
      <point x="880" y="-27"/>
      <point x="1173" y="154"/>
      <point x="1173" y="290" type="qcurve" smooth="yes"/>
      <point x="1173" y="426"/>
      <point x="956" y="565"/>
      <point x="724" y="589" type="qcurve" smooth="yes"/>
      <point x="553" y="607"/>
      <point x="506" y="618"/>
      <point x="507" y="633" type="qcurve" smooth="yes"/>
      <point x="508" y="650"/>
      <point x="531" y="659"/>
      <point x="571" y="659" type="qcurve" smooth="yes"/>
      <point x="610" y="659"/>
      <point x="649" y="645"/>
      <point x="649" y="626" type="qcurve" smooth="yes"/>
      <point x="649" y="604" type="line"/>
      <point x="1141" y="604" type="line"/>
      <point x="1141" y="627" type="line" smooth="yes"/>
      <point x="1141" y="761"/>
      <point x="836" y="951"/>
      <point x="588" y="951" type="qcurve" smooth="yes"/>
      <point x="339" y="951"/>
      <point x="15" y="768"/>
      <point x="15" y="634" type="qcurve" smooth="yes"/>
      <point x="15" y="503"/>
      <point x="191" y="356"/>
      <point x="434" y="322" type="qcurve" smooth="yes"/>
      <point x="614" y="297"/>
      <point x="639" y="281"/>
      <point x="639" y="269" type="qcurve" smooth="yes"/>
      <point x="639" y="258"/>
      <point x="611" y="243"/>
      <point x="572" y="243" type="qcurve" smooth="yes"/>
      <point x="538" y="243"/>
      <point x="494" y="257"/>
      <point x="494" y="287" type="qcurve" smooth="yes"/>
      <point x="494" y="304" type="line"/>
    </contour>
  </outline>
</glyph>
<glyph name="w" format="2">
  <advance width="1918"/>
  <unicode hex="0077"/>
  <outline>
    <contour>
      <point x="-10" y="914" type="line"/>
      <point x="272" y="0" type="line"/>
      <point x="851" y="0" type="line"/>
      <point x="937" y="281" type="line" smooth="yes"/>
      <point x="943" y="300"/>
      <point x="949" y="330"/>
      <point x="955" y="349" type="qcurve"/>
      <point x="958" y="349" type="line"/>
      <point x="965" y="330"/>
      <point x="972" y="300"/>
      <point x="978" y="281" type="qcurve" smooth="yes"/>
      <point x="1072" y="0" type="line"/>
      <point x="1643" y="0" type="line"/>
      <point x="1928" y="914" type="line"/>
      <point x="1432" y="914" type="line"/>
      <point x="1355" y="616" type="line" smooth="yes"/>
      <point x="1347" y="587"/>
      <point x="1339" y="559"/>
      <point x="1333" y="530" type="qcurve"/>
      <point x="1327" y="530" type="line"/>
      <point x="1320" y="559"/>
      <point x="1312" y="587"/>
      <point x="1304" y="616" type="qcurve" smooth="yes"/>
      <point x="1225" y="914" type="line"/>
      <point x="740" y="914" type="line"/>
      <point x="663" y="625" type="line" smooth="yes"/>
      <point x="655" y="594"/>
      <point x="648" y="564"/>
      <point x="638" y="533" type="qcurve"/>
      <point x="635" y="533" type="line"/>
      <point x="628" y="564"/>
      <point x="619" y="594"/>
      <point x="610" y="625" type="qcurve" smooth="yes"/>
      <point x="530" y="914" type="line"/>
    </contour>
  </outline>
</glyph>
<glyph name="x" format="2">
  <advance width="1197"/>
  <unicode hex="0078"/>
  <outline>
    <contour>
      <point x="-16" y="0" type="line"/>
      <point x="459" y="0" type="line"/>
      <point x="698" y="430" type="line"/>
      <point x="900" y="440" type="line"/>
      <point x="1204" y="914" type="line"/>
      <point x="729" y="914" type="line"/>
      <point x="463" y="512" type="line"/>
      <point x="299" y="498" type="line"/>
    </contour>
    <contour>
      <point x="-6" y="914" type="line"/>
      <point x="317" y="438" type="line"/>
      <point x="373" y="431" type="line"/>
      <point x="623" y="0" type="line"/>
      <point x="1213" y="0" type="line"/>
      <point x="881" y="498" type="line"/>
      <point x="823" y="498" type="line"/>
      <point x="584" y="914" type="line"/>
    </contour>
  </outline>
</glyph>
<glyph name="z" format="2">
  <advance width="1091"/>
  <unicode hex="007A"/>
  <outline>
    <contour>
      <point x="15" y="0" type="line"/>
      <point x="1076" y="0" type="line"/>
      <point x="1076" y="374" type="line"/>
      <point x="734" y="374" type="line"/>
      <point x="1038" y="609" type="line"/>
      <point x="1038" y="914" type="line"/>
      <point x="34" y="914" type="line"/>
      <point x="34" y="520" type="line"/>
      <point x="320" y="520" type="line"/>
      <point x="15" y="285" type="line"/>
    </contour>
  </outline>
</glyph>
<glyph name="braceleft" format="2">
  <advance width="905"/>
  <unicode hex="007B"/>
  <outline>
    <contour>
      <point x="885" y="-312" type="qcurve"/>
      <point x="885" y="80" type="line"/>
      <point x="771.0" y="80.0"/>
      <point x="664" y="121"/>
      <point x="679" y="173" type="qcurve" smooth="yes"/>
      <point x="726" y="334" type="line" smooth="yes"/>
      <point x="750" y="418"/>
      <point x="671" y="543"/>
      <point x="572" y="574" type="qcurve"/>
      <point x="671" y="605"/>
      <point x="750" y="730"/>
      <point x="726" y="814" type="qcurve" smooth="yes"/>
      <point x="679" y="975" type="line" smooth="yes"/>
      <point x="664" y="1027"/>
      <point x="771.0" y="1068.0"/>
      <point x="885" y="1068" type="qcurve"/>
      <point x="885" y="1460" type="line"/>
      <point x="386" y="1470"/>
      <point x="122" y="1234"/>
      <point x="171" y="1045" type="qcurve" smooth="yes"/>
      <point x="218" y="864" type="line" smooth="yes"/>
      <point x="231" y="813"/>
      <point x="130.0" y="788.0"/>
      <point x="32" y="788" type="qcurve"/>
      <point x="32" y="360" type="line"/>
      <point x="130.0" y="360.0"/>
      <point x="231" y="335"/>
      <point x="218" y="284" type="qcurve" smooth="yes"/>
      <point x="171" y="103" type="line" smooth="yes"/>
      <point x="120" y="-95"/>
      <point x="386" y="-332"/>
    </contour>
  </outline>
</glyph>
